<svg aria-hidden="true" style="position:absolute;width:0;height:0;overflow:hidden" xmlns="http://www.w3.org/2000/svg"><defs>
<symbol id="icon-plus" viewBox="0 0 32 32"><path fill="#ff6c00" style="fill:var(--color1, #ff6c00)" d="M13.476 17.973H2.418v-4.942h11.058V1.692h4.996v11.332h11.083v4.942H18.476v11.282h-4.999V17.973z"/></symbol>
<symbol id="icon-insta" viewBox="0 0 32 32"><path d="M31.975 9.41c-.074-1.701-.349-2.869-.744-3.882a7.836 7.836 0 0 0-1.847-2.838l-.001-.001A7.887 7.887 0 0 0 26.604.862L26.55.844C25.529.45 24.367.177 22.666.101 20.954.019 20.41 0 16.063 0c-4.345 0-4.889.019-6.597.094-1.701.074-2.869.349-3.881.743a7.847 7.847 0 0 0-2.839 1.85l-.001.001A7.877 7.877 0 0 0 .92 5.467l-.018.054C.507 6.54.233 7.702.158 9.403c-.082 1.712-.101 2.256-.101 6.603 0 4.345.019 4.889.094 6.597.075 1.701.35 2.869.744 3.882a7.936 7.936 0 0 0 1.849 2.838l.001.001c.8.813 1.77 1.444 2.833 1.844 1.019.395 2.183.671 3.882.744 1.708.075 2.252.094 6.597.094 4.347 0 4.891-.019 6.597-.094 1.701-.074 2.869-.349 3.882-.743a8.234 8.234 0 0 0 4.665-4.629l.019-.055c.394-1.019.669-2.183.744-3.882.075-1.708.093-2.252.093-6.597s-.006-4.889-.08-6.597zm-2.881 13.069c-.07 1.564-.333 2.407-.552 2.97a5.34 5.34 0 0 1-3.002 3.025l-.036.013c-.563.219-1.413.482-2.97.551-1.688.075-2.194.094-6.465.094-4.27 0-4.783-.019-6.465-.094-1.564-.069-2.407-.331-2.97-.551a4.935 4.935 0 0 1-1.836-1.193l-.001-.001a4.987 4.987 0 0 1-1.184-1.803l-.011-.034c-.218-.563-.48-1.413-.549-2.97-.075-1.688-.094-2.196-.094-6.465 0-4.271.019-4.785.094-6.465.069-1.564.331-2.407.549-2.97a4.887 4.887 0 0 1 1.199-1.837l.002-.002a4.975 4.975 0 0 1 1.806-1.183l.034-.011c.56-.219 1.412-.48 2.969-.551 1.688-.074 2.194-.093 6.465-.093 4.276 0 4.783.019 6.465.093 1.562.069 2.407.331 2.97.551a4.922 4.922 0 0 1 1.837 1.194c.531.52.938 1.144 1.195 1.84.218.56.48 1.412.549 2.969.075 1.688.094 2.194.094 6.465 0 4.27-.019 4.769-.094 6.459z"/><path d="M16.063 7.784a8.224 8.224 0 0 0-8.221 8.223v.002a8.224 8.224 0 1 0 8.224-8.224h-.002zm0 13.555a5.334 5.334 0 0 1 .001-10.668h.001a5.335 5.335 0 1 1 0 10.67zm10.468-13.88a1.92 1.92 0 1 1-3.84 0 1.92 1.92 0 1 1 3.84 0z"/></symbol>
<symbol id="icon-linkedin" viewBox="0 0 32 32"><path d="M31.999 32.007h.008v-11.74c0-5.742-1.237-10.165-7.949-10.165-3.228 0-5.393 1.77-6.278 3.45h-.093v-2.914h-6.366v21.368h6.629v-10.58c0-2.786.528-5.481 3.978-5.481 3.399 0 3.449 3.18 3.449 5.659v10.404h6.622zM.528 10.637h6.637v21.369H.528V10.637zM3.844 0A3.844 3.844 0 0 0 0 3.844c0 2.12 1.722 3.879 3.844 3.879 2.12 0 3.842-1.757 3.842-3.879S5.966.002 3.844 0z"/></symbol>
<symbol id="icon-mail" viewBox="0 0 32 32"><path fill="none" stroke="#9da4bd" style="stroke:var(--color2, #9da4bd)" stroke-linejoin="round" stroke-linecap="round" stroke-width="1.333" d="M6.4 6.667h19.2C26.92 6.667 28 7.716 28 9v14c0 1.283-1.08 2.333-2.4 2.333H6.4C5.08 25.333 4 24.282 4 23V9c0-1.284 1.08-2.333 2.4-2.333z"/><path  stroke="#9da4bd" style="stroke:var(--color2, #9da4bd)" stroke-linejoin="round" stroke-linecap="round" stroke-width="1.333" d="m26.667 9.333-10.667 8-10.667-8"/></symbol>
<symbol id="icon-map" viewBox="0 0 32 32"><path fill="none" stroke="#9da4bd" style="stroke:var(--color2, #9da4bd)" stroke-linejoin="round" stroke-linecap="round" stroke-width="1.333" d="M26.667 13.819C26.667 21.454 16 28 16 28S5.333 21.453 5.333 13.819C5.333 8.396 10.109 4 16 4s10.667 4.396 10.667 9.819v0z"/><path stroke="#9da4bd" style="stroke:var(--color2, #9da4bd)" stroke-linejoin="round" stroke-linecap="round" stroke-width="1.333" d="M16 18.667a4 4 0 0 0 0-8v0a4 4 0 0 0 0 8v0z"/></symbol>
<symbol id="icon-phone" viewBox="0 0 32 32"><path fill="none" stroke="#9da4bd" style="stroke:var(--color2, #9da4bd)" stroke-linejoin="round" stroke-linecap="round" stroke-width="1.333" d="M26.667 21.337v3.227A2.145 2.145 0 0 1 24.32 26.7l.009.001c-3.481-.388-6.626-1.563-9.338-3.343l.081.05a21.09 21.09 0 0 1-6.386-6.353l-.05-.083a20.982 20.982 0 0 1-3.285-9.205l-.008-.095a2.145 2.145 0 0 1 2.136-2.338h3.239c1.079 0 1.972.797 2.123 1.834l.001.012c.136 1.029.387 2.04.751 3.013a2.144 2.144 0 0 1-.483 2.264l-1.363 1.361c1.555 2.7 3.736 4.881 6.353 6.392l.083.044 1.363-1.361a2.14 2.14 0 0 1 2.278-.477l-.015-.005c.973.363 1.984.613 3.013.751a2.148 2.148 0 0 1 1.847 2.125l-.001.056v-.003z"/></symbol>
<symbol id="icon-twitter" viewBox="0 0 32 32"><path d="M32 6.078c-1.19.522-2.458.868-3.78 1.036a6.523 6.523 0 0 0 2.886-3.626 13.11 13.11 0 0 1-4.16 1.588A6.574 6.574 0 0 0 22.154 3c-3.632 0-6.556 2.948-6.556 6.562 0 .52.044 1.02.152 1.496-5.454-.266-10.28-2.88-13.522-6.862a6.605 6.605 0 0 0-.898 3.316 6.57 6.57 0 0 0 2.914 5.452 6.479 6.479 0 0 1-2.964-.808v.072c0 3.188 2.274 5.836 5.256 6.446a6.548 6.548 0 0 1-1.72.216 5.8 5.8 0 0 1-1.242-.112c.85 2.598 3.262 4.508 6.13 4.57a13.182 13.182 0 0 1-8.134 2.798c-.538 0-1.054-.024-1.57-.09A18.469 18.469 0 0 0 10.064 29c12.072 0 18.672-10 18.672-18.668 0-.29-.01-.57-.024-.848A13.087 13.087 0 0 0 32 6.078z"/></symbol>
<symbol id="icon-fb" viewBox="0 0 32 32"><path d="M20.532 5.313h2.924V.224A36.51 36.51 0 0 0 19.348 0h-.156.008c-4.214 0-7.101 2.65-7.101 7.522v4.481H7.452v5.689h4.647v14.315h5.699V17.694h4.463l.707-5.691h-5.169V8.082c0-1.644.443-2.769 2.735-2.769z"/></symbol></defs></svg>